# xmcd CD database file
#
# Track frame offsets:
#	150
#	13277
#	24998
#	42695
#	52632
#	65634
#	81197
#	91643
#	97136
#	114206
#	131931
#	150134
#	161583
#	185006
#
# Disc length: 2668 seconds
#
# Revision: 1
# Processed by: cddbd v1.4PL0 Copyright (c) Steve Scherf et al.
# Submitted via: CDex 1.40Release
#
DISCID=ad0a6a0e
DTITLE=Carolyn Wonderland - Alcohol and Salvation
DYEAR=2001
DGENRE=Blues
TTITLE0=I'm Innocent
TTITLE1=I'm Out Sick
TTITLE2=How Many Crowes
TTITLE3=Brick Wall
TTITLE4=The Only Girl You Know
TTITLE5=Worst Day Of My Life
TTITLE6=Bad Girl
TTITLE7=Beer
TTITLE8=Pieces Of A Postcard
TTITLE9=Feed Me To The Lions
TTITLE10=Sober
TTITLE11=I'm The Man
TTITLE12=Gospel Song
TTITLE13=I Don't Wanna Fall For You
EXTD=YEAR: 2001 ID3G: 0
EXTT0=
EXTT1=
EXTT2=
EXTT3=
EXTT4=
EXTT5=
EXTT6=
EXTT7=
EXTT8=
EXTT9=
EXTT10=
EXTT11=
EXTT12=
EXTT13=
PLAYORDER=
